<?xml version="1.0" encoding="UTF-8"?>
<svg version="1.1" xmlns="http://www.w3.org/2000/svg" width="475" height="432">
<path d="M0 0 C156.75 0 313.5 0 475 0 C475 142.56 475 285.12 475 432 C318.25 432 161.5 432 0 432 C0 289.44 0 146.88 0 0 Z " fill="#FCFCFA" transform="translate(0,0)"/>
<path d="M0 0 C1.47899366 0.00056488 2.95798787 0.00024606 4.4369812 -0.00088501 C8.43229755 -0.00145654 12.4274927 0.0102653 16.42278099 0.02426291 C20.60545607 0.03680367 24.78813422 0.0379434 28.9708252 0.04031372 C36.88251253 0.04651868 44.79414429 0.06291613 52.70580721 0.0830127 C63.40307459 0.10959259 74.10035728 0.1203523 84.79764938 0.13201714 C101.63922972 0.15079747 118.48069281 0.19064969 135.32226562 0.22705078 C135.32226562 29.59705078 135.32226562 58.96705078 135.32226562 89.22705078 C129.71226562 90.54705078 124.10226563 91.86705078 118.32226562 93.22705078 C115.29526016 94.38385238 112.73327545 95.40356708 109.94726562 96.91455078 C109.2957251 97.25413818 108.64418457 97.59372559 107.97290039 97.94360352 C101.79058143 101.28788713 96.48802337 105.47072072 91.32226562 110.22705078 C90.69191406 110.76587891 90.0615625 111.30470703 89.41210938 111.85986328 C76.97497029 123.13544724 68.31711537 141.65327211 67.1027832 158.22167969 C66.20241935 182.51451577 70.47097625 203.85285509 87.32226562 222.22705078 C87.94746094 222.93216797 88.57265625 223.63728516 89.21679688 224.36376953 C101.18586125 237.16164895 118.29376855 244.38896794 135.32226562 247.22705078 C135.32226562 276.26705078 135.32226562 305.30705078 135.32226562 335.22705078 C97.809097 335.42856595 97.809097 335.42856595 82.0234375 335.47119141 C71.14725889 335.50079679 60.27127473 335.53549691 49.39526367 335.60424805 C41.47237492 335.65430729 33.54964475 335.68639462 25.62660223 335.69749326 C21.43686717 335.70397419 17.24758553 335.7190513 13.05799675 335.75570107 C9.10246495 335.79001809 5.1475668 335.80003313 1.19190025 335.79258919 C-0.24829826 335.79394801 -1.68852131 335.80366608 -3.12858963 335.82307816 C-18.09368313 336.01465624 -31.40671032 332.57688537 -42.67773438 322.22705078 C-52.79594651 311.47645039 -57.06604501 300.70792743 -56.87304688 286.03564453 C-56.87021698 285.20492935 -56.86738708 284.37421417 -56.86447144 283.51832581 C-56.85339729 280.90024573 -56.82831797 278.28252508 -56.80273438 275.66455078 C-56.79268803 273.87484223 -56.78356509 272.08512824 -56.77539062 270.29541016 C-56.75350002 265.93915474 -56.7190607 261.5831634 -56.67773438 257.22705078 C-55.08771606 257.15574951 -55.08771606 257.15574951 -53.46557617 257.08300781 C-30.77340078 255.94862579 -13.13759743 247.70853532 2.38085938 231.01220703 C17.20016706 213.28844706 19.00031055 192.87935573 18.84375 170.77270508 C18.82228385 167.16761171 18.8436547 163.56450616 18.86914062 159.95947266 C18.88473775 147.81658496 18.64487899 136.68120635 14.32226562 125.22705078 C14.0196582 124.42211182 13.71705078 123.61717285 13.40527344 122.7878418 C12.58627264 120.81210555 11.69030668 118.9328905 10.69726562 117.03955078 C10.18631348 116.05039673 10.18631348 116.05039673 9.66503906 115.04125977 C0.64564646 98.2709535 -14.59984574 86.09076606 -32.80273438 80.47705078 C-40.60558008 78.53495811 -48.69330694 77.99734899 -56.67773438 77.22705078 C-56.7778922 72.33819304 -56.84979887 67.44995458 -56.89746094 62.56030273 C-56.91736498 60.90297012 -56.94449851 59.24570573 -56.97949219 57.58862305 C-57.31431187 41.30555413 -54.89996379 27.64339357 -43.71679688 15.01220703 C-31.29911865 2.98690897 -16.65765219 -0.08935482 0 0 Z " fill="#1E8E4A" transform="translate(90.677734375,49.77294921875)"/>
<path d="M0 0 C35.75774758 -0.1209091 35.75774758 -0.1209091 50.81054688 -0.14648438 C61.17965171 -0.164244 71.5486831 -0.18505415 81.91772461 -0.22631836 C89.47144838 -0.25636433 97.02511221 -0.27560881 104.57889408 -0.28226548 C108.57288505 -0.2861522 112.56670467 -0.29518736 116.56064034 -0.31719017 C120.33221484 -0.33779648 124.10355002 -0.34378598 127.87517548 -0.33932304 C129.89408448 -0.34052128 131.91296839 -0.35653541 133.93180847 -0.3732605 C150.77250059 -0.31728206 165.23547305 2.73776907 177.7421875 14.6171875 C189.86872194 27.41508717 190.56318376 40.93955539 190.25 57.6875 C190.22989983 59.56443402 190.2116553 61.44138888 190.1953125 63.31835938 C190.15160563 67.87942806 190.08277384 72.43947988 190 77 C188.19015625 77.17740723 188.19015625 77.17740723 186.34375 77.35839844 C184.72912875 77.5250236 183.11454748 77.69203652 181.5 77.859375 C180.70851563 77.93591309 179.91703125 78.01245117 179.1015625 78.09130859 C160.47315452 80.0572164 143.99972456 89.37189606 131.8125 103.5625 C123.18704074 114.92112947 115.97452733 130.05487817 115.82299805 144.4543457 C115.81016281 145.52348709 115.79732758 146.59262848 115.78410339 147.69416809 C115.77671646 148.84310043 115.76932953 149.99203278 115.76171875 151.17578125 C115.74961113 152.97271675 115.74961113 152.97271675 115.73725891 154.80595398 C115.72343413 157.34531211 115.7127048 159.8846887 115.70483398 162.42407227 C115.69336554 164.99671959 115.67299641 167.5693441 115.64331055 170.1418457 C115.35280306 195.33484954 118.01073304 215.65537852 135.16796875 235.2109375 C148.08320556 247.930219 164.22666741 255.63320077 182.36328125 256.578125 C183.4686322 256.6412085 183.4686322 256.6412085 184.59631348 256.70556641 C186.39731647 256.80777168 188.19863147 256.90445367 190 257 C190.12469579 262.90405801 190.21485152 268.80732983 190.2746582 274.71240234 C190.29962011 276.71611911 190.33360222 278.71974655 190.37719727 280.72314453 C190.72085423 296.93566726 189.45562183 308.57943378 178 321 C167.84896285 331.51100301 154.01655692 334.99617657 139.73574829 335.36076355 C137.1280629 335.36932485 134.52377784 335.36235027 131.91650391 335.34057617 C130.46618162 335.33972731 129.01585805 335.34021009 127.5655365 335.34190369 C123.67587707 335.34275496 119.78650229 335.32527216 115.89690828 335.30418181 C111.81437452 335.28526811 107.73183229 335.28365311 103.64926147 335.28010559 C95.93960955 335.27082786 88.23008716 335.24627276 80.52049196 335.21605712 C70.08749925 335.1760664 59.65447045 335.16002366 49.22142029 335.14255047 C32.81418341 335.11444792 16.4072197 335.05465025 0 335 C0 305.96 0 276.92 0 247 C7.425 245.02 7.425 245.02 15 243 C35.93693344 235.38656966 51.55490844 221.53727634 61.375 201.625 C70.37264012 180.38341211 70.85085466 157.54581478 62.4375 136 C53.57378254 116.42504086 38.58525407 102.58020655 19 94 C12.73 92.35 6.46 90.7 0 89 C0 59.63 0 30.26 0 0 Z " fill="#1E8E49" transform="translate(247,50)"/>
<path d="M0 0 C156.75 0 313.5 0 475 0 C475 142.56 475 285.12 475 432 C318.25 432 161.5 432 0 432 C0 289.44 0 146.88 0 0 Z M29.39306641 51.4140625 C17.95770872 64.43265408 12.6734649 79.79845545 12.73930359 96.93461609 C12.73547804 98.00231871 12.73165249 99.07002133 12.72771102 100.17007858 C12.71743292 103.73021711 12.72136337 107.29019281 12.7253418 110.8503418 C12.72099239 113.41020354 12.71580847 115.97006398 12.70985413 118.52992249 C12.69786412 124.75180477 12.69531007 130.97362753 12.69765439 137.19551911 C12.69944129 142.25716484 12.69767994 147.3187975 12.69342995 152.38044167 C12.69283476 153.10232478 12.69223957 153.8242079 12.69162634 154.56796626 C12.69041452 156.03476621 12.68920038 157.50156617 12.68798397 158.96836612 C12.6771185 172.71098663 12.67926585 186.45358258 12.68536881 200.19620446 C12.69053362 212.74419979 12.6792923 225.29211738 12.66027059 237.84009733 C12.64085532 250.74745884 12.63264287 263.65478364 12.63639385 276.56215984 C12.63830075 283.79931084 12.63586867 291.03639575 12.62167931 298.27353477 C12.60846147 305.08372731 12.61107552 311.89376246 12.62409019 318.7039547 C12.62644876 321.19593357 12.62374728 323.68792345 12.61546707 326.17988968 C12.5398163 350.72784047 15.3249212 370.17048693 33.37890625 388.40234375 C49.2765588 403.35459599 66.90761711 407.15040132 88.18553162 407.14717102 C89.49542512 407.15084771 90.80531861 407.1545244 92.15490586 407.1583125 C95.771129 407.16826348 99.38733556 407.17203806 103.00357044 407.17470181 C106.91177558 407.17862543 110.81996783 407.18820211 114.72816467 407.19691467 C124.15579848 407.21661955 133.58343327 407.22673694 143.0110825 407.23564246 C147.45925836 407.24003451 151.90743305 407.24539886 156.35560799 407.25063133 C171.15617723 407.26763638 185.95674576 407.28212896 200.75732327 407.28938007 C204.59269143 407.29128971 208.42805959 407.29321009 212.26342773 407.29516602 C213.69317802 407.29589163 213.69317802 407.29589163 215.15181214 407.2966319 C230.58118215 407.30492648 246.0104745 407.33025698 261.43981063 407.36274669 C277.30781814 407.39588575 293.17578627 407.41383494 309.04382855 407.41702431 C317.94222116 407.4191829 326.84050045 407.42783586 335.73885918 407.45348549 C343.31903273 407.47528613 350.8990654 407.48319712 358.47926676 407.47351871 C362.33980242 407.46900117 366.20004797 407.47070986 370.06054306 407.49028015 C397.70747812 407.62251678 419.69661217 405.54903132 440.625 385.75 C447.46006469 378.67719393 451.87865121 370.93649718 455.375 361.8125 C455.75144653 360.83301392 455.75144653 360.83301392 456.13549805 359.83374023 C459.0355198 351.80485464 459.14794811 343.74416308 459.14044189 335.2928009 C459.14341302 334.2374978 459.14638414 333.18219469 459.1494453 332.09491271 C459.15809317 328.57083537 459.15963722 325.04679217 459.16113281 321.52270508 C459.16576372 318.99092537 459.17078875 316.45914637 459.17617798 313.92736816 C459.18927689 307.05735315 459.19577915 300.18734929 459.20018864 293.31732392 C459.20295794 289.02222906 459.2071965 284.72713643 459.21169281 280.43204308 C459.22387921 268.52412591 459.23418021 256.61621051 459.2375679 244.70828724 C459.23778747 243.9472272 459.23800703 243.18616716 459.23823325 242.40204469 C459.23845153 241.63923894 459.23866981 240.87643318 459.2388947 240.0905121 C459.23933816 238.54496054 459.23978472 236.99940898 459.24023438 235.45385742 C459.2404558 234.68722224 459.24067723 233.92058707 459.24090537 233.13072052 C459.2448516 220.71455374 459.26230308 208.29844571 459.2855939 195.88230161 C459.30935073 183.11397312 459.3217717 170.34567407 459.32293582 157.57732314 C459.32385007 150.41675371 459.32953935 143.25626089 459.34775543 136.09571266 C459.36483698 129.35776875 459.36637681 122.61999455 459.35761642 115.88202667 C459.3568477 113.41542611 459.36116688 110.94881765 459.37107468 108.48223686 C459.46164658 84.52022594 456.46618212 65.63429279 438.84375 47.8203125 C421.89617467 32.00655383 402.49221033 27.83703734 380.09126282 27.86628723 C378.81121547 27.86402167 377.53116813 27.86175612 376.21233147 27.85942191 C372.6795935 27.85333541 369.1468793 27.85343377 365.61413729 27.85461628 C361.79599244 27.85482109 357.97785507 27.84929388 354.15971375 27.84455872 C346.68654664 27.83626874 339.21338743 27.83350462 331.74021611 27.83294634 C325.66217426 27.83247036 319.58413501 27.83041155 313.50609398 27.82724571 C296.25420136 27.8184434 279.00231495 27.81382564 261.75042007 27.81457619 C260.35669529 27.81463612 260.35669529 27.81463612 258.93481445 27.81469727 C257.53937769 27.81475859 257.53937769 27.81475859 256.11575028 27.81482115 C241.04582992 27.81522743 225.97593458 27.80566133 210.90602145 27.7915589 C195.41319713 27.77717571 179.92038499 27.77028979 164.42755383 27.77115268 C155.73724288 27.77148399 147.04695814 27.76876576 138.35665321 27.75797462 C130.95645254 27.748844 123.55628995 27.74671532 116.15608606 27.75348405 C112.38524128 27.75673645 108.61446947 27.75685258 104.84363174 27.7481308 C100.74358512 27.73874568 96.64370557 27.7450752 92.5436554 27.75276184 C91.36881649 27.74761828 90.19397758 27.74247471 88.9835375 27.73717529 C66.08343431 27.83153233 45.48084587 34.55655894 29.39306641 51.4140625 Z " fill="#1D8D48" transform="translate(0,0)"/>
<path d="M0 0 C16.89679176 0 25.08053144 0.37803817 37 11 C37.67804688 11.55042969 38.35609375 12.10085937 39.0546875 12.66796875 C46.39977514 19.14136311 50.93487179 28.80461536 54 38 C54.10285939 39.77199992 54.14848234 41.54757209 54.16113281 43.32250977 C54.17074036 44.41116837 54.1803479 45.49982697 54.19024658 46.62147522 C54.19449646 47.79955246 54.19874634 48.9776297 54.203125 50.19140625 C54.20882507 51.40642319 54.21452515 52.62144012 54.22039795 53.87327576 C54.22985392 56.44976937 54.23638429 59.02627511 54.24023438 61.6027832 C54.24990139 65.52251714 54.28090418 69.44171815 54.3125 73.36132812 C54.31903404 75.86718439 54.32428294 78.37304441 54.328125 80.87890625 C54.3404718 82.04281387 54.3528186 83.2067215 54.36553955 84.40589905 C54.32494036 99.43189228 49.0910264 110.98148955 39 122 C27.46192294 132.81694725 15.54388423 135 0 135 C0 90.45 0 45.9 0 0 Z " fill="#1D8D49" transform="translate(34,150)"/>
<path d="M0 0 C0 44.55 0 89.1 0 135 C-16.88383812 135 -27.34641489 131.09029141 -39.5625 120.125 C-47.55791594 111.8907052 -53.05301095 100.15279306 -53.17700195 88.66577148 C-53.18983719 87.62376083 -53.20267242 86.58175018 -53.21589661 85.50816345 C-53.22328354 84.39043045 -53.23067047 83.27269745 -53.23828125 82.12109375 C-53.246353 80.95804214 -53.25442474 79.79499054 -53.26274109 78.59669495 C-53.27656002 76.13470947 -53.28729195 73.67270502 -53.29516602 71.21069336 C-53.3066647 68.70770607 -53.32708264 66.20474289 -53.35668945 63.7019043 C-53.39962476 60.07063255 -53.41557326 56.4400887 -53.42578125 52.80859375 C-53.44328934 51.70503036 -53.46079742 50.60146698 -53.47883606 49.46446228 C-53.43857551 34.82105673 -47.66838781 22.79786836 -37.75 12.1875 C-26.34675864 1.29193719 -15.85669948 0 0 0 Z " fill="#1D8D48" transform="translate(437,150)"/>
<path d="M0 0 C0 37.62 0 75.24 0 114 C-14.25252196 111.96392543 -26.03240479 105.23520764 -35.375 94.1875 C-46.07430664 79.81795303 -49.65196003 64.6183635 -48 47 C-45.26078099 32.23607379 -37.20457841 18.98770108 -25.2265625 9.89453125 C-17.58599816 4.87572918 -9.3295137 0 0 0 Z " fill="#1C8D48" transform="translate(226,161)"/>
<path d="M0 0 C13.6465479 1.94950684 23.70056035 7.94655173 33 18 C33.45761719 18.44085938 33.91523438 18.88171875 34.38671875 19.3359375 C46.26773327 31.62234096 47.54715382 47.35097941 47.33984375 63.53125 C47.08384337 70.95844788 45.74453017 76.49934357 42 83 C41.49210937 83.94359375 40.98421875 84.8871875 40.4609375 85.859375 C32.28280614 99.89010274 20.84348406 108.43611854 5.56640625 113.3359375 C3 114 3 114 0 114 C0 76.38 0 38.76 0 0 Z " fill="#1D8C48" transform="translate(247,161)"/>
<path d="M0 0 C2.96498137 1.24551591 2.96498137 1.24551591 5.4375 0.0625 C5.97375 -0.30875 6.51 -0.68 7.0625 -1.0625 C8.75208747 3.21116243 9.03345469 5.51753244 8.0625 9.9375 C7.97378458 11.47860858 7.92910323 13.02275242 7.9238348 14.56640339 C7.91562313 15.92418525 7.91562313 15.92418525 7.90724558 17.30939704 C7.90626747 18.29480655 7.90528936 19.28021605 7.90428162 20.29548645 C7.89934364 21.34923153 7.89440566 22.40297661 7.88931805 23.48865336 C7.87394199 27.02474193 7.86558208 30.56081233 7.85717773 34.09692383 C7.8475993 36.62965047 7.83758924 39.16237552 7.82717896 41.69509888 C7.80572808 47.15056129 7.78728453 52.60602073 7.77157402 58.06150246 C7.74885412 65.94919499 7.72071424 73.83686088 7.69125474 81.72453078 C7.64360482 94.52198986 7.60033359 107.31945986 7.55981445 120.11694336 C7.5204463 132.54794157 7.47901691 144.9789301 7.43481445 157.40991211 C7.43209018 158.17625636 7.42936591 158.9426006 7.42655908 159.7321674 C7.41287939 163.57672066 7.39915916 167.42127378 7.38541877 171.26582682 C7.27149483 203.15636459 7.16474939 235.0469226 7.0625 266.9375 C6.7325 266.9375 6.4025 266.9375 6.0625 266.9375 C5.7325 246.1475 5.4025 225.3575 5.0625 203.9375 C4.7325 207.8975 4.4025 211.8575 4.0625 215.9375 C-0.9375 218.9375 -0.9375 218.9375 -5.9375 218.9375 C-5.9375 146.6675 -5.9375 74.3975 -5.9375 -0.0625 C-2.9375 -1.0625 -2.9375 -1.0625 0 0 Z " fill="#259150" transform="translate(5.9375,76.0625)"/>
<path d="M0 0 C0.99 0.495 0.99 0.495 2 1 C2 1.66 2 2.32 2 3 C3.98 2.34 5.96 1.68 8 1 C8 1.99 8 2.98 8 4 C8.66 4.33 9.32 4.66 10 5 C8.625 6.5 8.625 6.5 7 8 C6.34 8 5.68 8 5 8 C5.33 9.65 5.66 11.3 6 13 C2.57068046 9.2440786 1.43570917 4.76533255 0 0 Z " fill="#17853E" transform="translate(307,179)"/>
<path d="M0 0 C4.9723422 1.49170266 9.41845739 3.60457417 14 6 C13.01 6.33 12.02 6.66 11 7 C10.38125 6.67 9.7625 6.34 9.125 6 C6.38132771 4.7088601 4.86062069 5.20538314 2 6 C1.34 4.02 0.68 2.04 0 0 Z " fill="#108033" transform="translate(395,297)"/>
<path d="M0 0 C0.33 0.66 0.66 1.32 1 2 C-3.66666667 4.33333333 -8.33333333 6.66666667 -13 9 C-12.87890625 7.171875 -12.87890625 7.171875 -12 5 C-9.27734375 3.515625 -9.27734375 3.515625 -5.9375 2.25 C-4.83277344 1.82203125 -3.72804688 1.3940625 -2.58984375 0.953125 C-1.73519531 0.63859375 -0.88054687 0.3240625 0 0 Z " fill="#158136" transform="translate(274,288)"/>
<path d="M0 0 C4.95 0.99 4.95 0.99 10 2 C6 4 6 4 3 5 C3 4.34 3 3.68 3 3 C2.01 2.01 1.02 1.02 0 0 Z " fill="#128034" transform="translate(410,304)"/>
<path d="M0 0 C4.43090471 1.20842856 6.98112756 2.51668565 10 6 C9.34 6 8.68 6 8 6 C7.67 6.66 7.34 7.32 7 8 C6.6596875 7.1028125 6.6596875 7.1028125 6.3125 6.1875 C4.66463631 3.44106051 2.76545517 2.52827786 0 1 C0 0.67 0 0.34 0 0 Z " fill="#128034" transform="translate(260,165)"/>
<path d="M0 0 C0 3 0 3 -1.3125 4.38671875 C-2.875 5.59114583 -4.4375 6.79557292 -6 8 C-6.66 7.67 -7.32 7.34 -8 7 C-5.36 4.69 -2.72 2.38 0 0 Z " fill="#127D32" transform="translate(293,274)"/>
<path d="M0 0 C0.33 0 0.66 0 1 0 C1 1.98 1 3.96 1 6 C1.66 6.33 2.32 6.66 3 7 C1.68 7.33 0.36 7.66 -1 8 C-1.625 5.125 -1.625 5.125 -2 2 C-1.34 1.34 -0.68 0.68 0 0 Z " fill="#2A9353" transform="translate(460,344)"/>
</svg>